<mxfile host="app.diagrams.net" modified="2024-07-02T13:10:19.001Z" agent="Mozilla/5.0 (Windows NT 10.0; Win64; x64) AppleWebKit/537.36 (KHTML, like Gecko) Chrome/126.0.0.0 Safari/537.36" etag="9e3NjIZr7X2PV0czde1v" version="24.6.4" type="github">
  <diagram name="Page-1" id="XNeHK3JeU9vnmCHWV1sG">
    <mxGraphModel dx="794" dy="446" grid="1" gridSize="10" guides="1" tooltips="1" connect="1" arrows="1" fold="1" page="1" pageScale="1" pageWidth="850" pageHeight="1100" math="0" shadow="0">
      <root>
        <mxCell id="0" />
        <mxCell id="1" parent="0" />
        <mxCell id="ICSD28jsY7txT4SUFhvb-2" value="" style="swimlane;startSize=0;" vertex="1" parent="1">
          <mxGeometry x="200" y="425" width="640" height="335" as="geometry" />
        </mxCell>
        <mxCell id="ICSD28jsY7txT4SUFhvb-15" value="" style="endArrow=none;html=1;rounded=0;exitX=0;exitY=0.25;exitDx=0;exitDy=0;entryX=1;entryY=0.25;entryDx=0;entryDy=0;" edge="1" parent="ICSD28jsY7txT4SUFhvb-2">
          <mxGeometry width="50" height="50" relative="1" as="geometry">
            <mxPoint y="175" as="sourcePoint" />
            <mxPoint x="640" y="175" as="targetPoint" />
          </mxGeometry>
        </mxCell>
        <mxCell id="ICSD28jsY7txT4SUFhvb-16" value="" style="endArrow=none;html=1;rounded=0;exitX=0;exitY=0.25;exitDx=0;exitDy=0;entryX=1;entryY=0.25;entryDx=0;entryDy=0;" edge="1" parent="ICSD28jsY7txT4SUFhvb-2">
          <mxGeometry width="50" height="50" relative="1" as="geometry">
            <mxPoint y="265" as="sourcePoint" />
            <mxPoint x="640" y="265" as="targetPoint" />
          </mxGeometry>
        </mxCell>
        <mxCell id="ICSD28jsY7txT4SUFhvb-21" value="" style="endArrow=classic;html=1;rounded=0;" edge="1" parent="ICSD28jsY7txT4SUFhvb-2">
          <mxGeometry relative="1" as="geometry">
            <mxPoint x="10" y="45" as="sourcePoint" />
            <mxPoint x="110" y="45" as="targetPoint" />
          </mxGeometry>
        </mxCell>
        <mxCell id="ICSD28jsY7txT4SUFhvb-22" value="Login" style="edgeLabel;resizable=0;html=1;;align=center;verticalAlign=middle;" connectable="0" vertex="1" parent="ICSD28jsY7txT4SUFhvb-21">
          <mxGeometry relative="1" as="geometry" />
        </mxCell>
        <mxCell id="ICSD28jsY7txT4SUFhvb-3" value="" style="swimlane;startSize=0;" vertex="1" parent="1">
          <mxGeometry x="80" y="425" width="105" height="335" as="geometry" />
        </mxCell>
        <mxCell id="ICSD28jsY7txT4SUFhvb-4" value="" style="endArrow=none;html=1;rounded=0;exitX=0;exitY=0.5;exitDx=0;exitDy=0;entryX=1;entryY=0.254;entryDx=0;entryDy=0;entryPerimeter=0;" edge="1" parent="ICSD28jsY7txT4SUFhvb-3" target="ICSD28jsY7txT4SUFhvb-3">
          <mxGeometry width="50" height="50" relative="1" as="geometry">
            <mxPoint y="85" as="sourcePoint" />
            <mxPoint x="100" y="85" as="targetPoint" />
          </mxGeometry>
        </mxCell>
        <mxCell id="ICSD28jsY7txT4SUFhvb-5" value="" style="endArrow=none;html=1;rounded=0;exitX=0;exitY=0.5;exitDx=0;exitDy=0;entryX=1;entryY=0.525;entryDx=0;entryDy=0;entryPerimeter=0;" edge="1" parent="ICSD28jsY7txT4SUFhvb-3" target="ICSD28jsY7txT4SUFhvb-3">
          <mxGeometry width="50" height="50" relative="1" as="geometry">
            <mxPoint x="1" y="175" as="sourcePoint" />
            <mxPoint x="100" y="176" as="targetPoint" />
          </mxGeometry>
        </mxCell>
        <mxCell id="ICSD28jsY7txT4SUFhvb-6" value="" style="endArrow=none;html=1;rounded=0;exitX=0;exitY=0.5;exitDx=0;exitDy=0;entryX=1.002;entryY=0.79;entryDx=0;entryDy=0;entryPerimeter=0;" edge="1" parent="ICSD28jsY7txT4SUFhvb-3" target="ICSD28jsY7txT4SUFhvb-3">
          <mxGeometry width="50" height="50" relative="1" as="geometry">
            <mxPoint y="265" as="sourcePoint" />
            <mxPoint x="100" y="265" as="targetPoint" />
          </mxGeometry>
        </mxCell>
        <mxCell id="ICSD28jsY7txT4SUFhvb-10" value="Innoveo&amp;nbsp;&lt;div&gt;Rating Enginge&lt;/div&gt;" style="text;html=1;align=center;verticalAlign=middle;resizable=0;points=[];autosize=1;strokeColor=none;fillColor=none;" vertex="1" parent="ICSD28jsY7txT4SUFhvb-3">
          <mxGeometry x="-5" y="198" width="110" height="40" as="geometry" />
        </mxCell>
        <mxCell id="ICSD28jsY7txT4SUFhvb-11" value="External DB" style="text;html=1;align=center;verticalAlign=middle;resizable=0;points=[];autosize=1;strokeColor=none;fillColor=none;" vertex="1" parent="ICSD28jsY7txT4SUFhvb-3">
          <mxGeometry x="5" y="283" width="90" height="30" as="geometry" />
        </mxCell>
        <mxCell id="ICSD28jsY7txT4SUFhvb-7" value="" style="shape=actor;whiteSpace=wrap;html=1;" vertex="1" parent="ICSD28jsY7txT4SUFhvb-3">
          <mxGeometry x="30" y="35" width="30" height="40" as="geometry" />
        </mxCell>
        <mxCell id="ICSD28jsY7txT4SUFhvb-13" value="User" style="text;html=1;align=center;verticalAlign=middle;resizable=0;points=[];autosize=1;strokeColor=none;fillColor=none;" vertex="1" parent="ICSD28jsY7txT4SUFhvb-3">
          <mxGeometry x="20" y="5" width="50" height="30" as="geometry" />
        </mxCell>
        <mxCell id="ICSD28jsY7txT4SUFhvb-9" value="Innoveo UI" style="text;html=1;align=center;verticalAlign=middle;resizable=0;points=[];autosize=1;strokeColor=none;fillColor=none;" vertex="1" parent="1">
          <mxGeometry x="80" y="538" width="80" height="30" as="geometry" />
        </mxCell>
        <mxCell id="ICSD28jsY7txT4SUFhvb-14" value="" style="endArrow=none;html=1;rounded=0;exitX=0;exitY=0.25;exitDx=0;exitDy=0;entryX=1;entryY=0.25;entryDx=0;entryDy=0;" edge="1" parent="1" source="ICSD28jsY7txT4SUFhvb-2" target="ICSD28jsY7txT4SUFhvb-2">
          <mxGeometry width="50" height="50" relative="1" as="geometry">
            <mxPoint x="400" y="600" as="sourcePoint" />
            <mxPoint x="450" y="550" as="targetPoint" />
          </mxGeometry>
        </mxCell>
      </root>
    </mxGraphModel>
  </diagram>
</mxfile>
